<?xml version="1.0" encoding="UTF-8"?><svg id="Layer_2" xmlns="http://www.w3.org/2000/svg" xmlns:xlink="http://www.w3.org/1999/xlink" viewBox="0 0 80.95 64"><defs><style>.cls-1{fill:url(#linear-gradient);}.cls-2{fill:#0d0f0e;}</style><linearGradient id="linear-gradient" x1="26.73" y1="30.99" x2="54.67" y2="3.05" gradientUnits="userSpaceOnUse"><stop offset="0" stop-color="#3e50b4"/><stop offset=".63" stop-color="#2f8676"/><stop offset=".75" stop-color="#2f8872"/><stop offset=".86" stop-color="#308f67"/><stop offset=".96" stop-color="#329b55"/><stop offset="1" stop-color="#34a14c"/></linearGradient></defs><g id="Bin"><g><g><path class="cls-2" d="m11.22,53.92c-.12-.12-.26-.17-.4-.16-.14,0-.28.05-.38.16-.78.78-1.61,1.18-2.76,1.19-2.31-.02-3.77-1.73-3.79-3.78.03-2.06,1.49-3.76,3.79-3.78,1.14,0,1.98.41,2.76,1.19.11.11.24.16.38.16.14,0,.28-.04.4-.16l1.75-1.72c.17-.17.23-.41.06-.61-1.22-1.57-3.17-2.56-5.48-2.56-.02,0-.03,0-.05,0-.01,0-.03,0-.04,0-4.28,0-7.46,3.2-7.46,7.43,0,.02,0,.04,0,.06,0,.02,0,.04,0,.06,0,4.22,3.18,7.43,7.46,7.43.01,0,.03,0,.04,0,.02,0,.03,0,.05,0,2.3,0,4.25-.99,5.48-2.56.17-.2.12-.44-.06-.61l-1.75-1.72Z"/><path class="cls-2" d="m15.53,51.33c0-4.22,3.18-7.49,7.49-7.49s7.46,3.26,7.46,7.49-3.18,7.49-7.46,7.49-7.49-3.26-7.49-7.49Zm7.49,3.79c2.01,0,3.58-1.46,3.58-3.79s-1.57-3.79-3.58-3.79-3.61,1.46-3.61,3.79,1.57,3.79,3.61,3.79Z"/><path class="cls-2" d="m33.43,63.54v-18.89c0-.25.21-.46.46-.46h2.86c.21,0,.44.19.44.44l.03.78c0,.26.33.36.5.17.96-1.1,2.33-1.74,4.19-1.74,3.99,0,6.76,3.26,6.76,7.49s-2.77,7.49-6.76,7.49c-1.93,0-3.4-.74-4.39-1.99-.01-.02-.04,0-.04.01v6.71c0,.25-.21.46-.46.46h-3.13c-.25,0-.46-.21-.46-.46Zm7.63-8.4c2.1,0,3.67-1.51,3.67-3.82s-1.57-3.82-3.67-3.82-3.64,1.51-3.64,3.82,1.49,3.82,3.64,3.82Z"/><path class="cls-2" d="m51.07,51.33c0-4.22,3.18-7.49,7.49-7.49s7.46,3.26,7.46,7.49-3.18,7.49-7.46,7.49-7.49-3.26-7.49-7.49Zm7.49,3.79c2.01,0,3.58-1.46,3.58-3.79s-1.57-3.79-3.58-3.79-3.61,1.46-3.61,3.79,1.57,3.79,3.61,3.79Z"/><path class="cls-2" d="m68.97,58.01v-19.91c0-.25.2-.46.46-.46h3.13c.25,0,.46.2.46.46v19.91c0,.25-.2.46-.46.46h-3.13c-.25,0-.46-.2-.46-.46Z"/><path class="cls-2" d="m76.9,58.01v-19.91c0-.25.2-.46.46-.46h3.13c.25,0,.46.2.46.46v19.91c0,.25-.2.46-.46.46h-3.13c-.25,0-.46-.2-.46-.46Z"/></g><path class="cls-1" d="m47.08,17.29c0,3.65-2.96,6.61-6.61,6.61s-6.61-2.96-6.61-6.61,2.96-6.61,6.61-6.61,6.61,2.96,6.61,6.61Zm1.44,8.91s-.04-.05-.07-.07c-.17-.16-.4-.26-.65-.26-.2,0-.38.06-.53.16-1.81,1.41-4.07,2.26-6.52,2.32-.09,0-.18,0-.26,0-5.91,0-10.74-4.63-11.05-10.46,0,0,0-.02,0-.03,0-.13,0-.25,0-.38,0-.07,0-.13,0-.2,0-.07,0-.14,0-.2,0-.13,0-.25.01-.38,0,0,0-.02,0-.03.34-5.83,5.19-10.44,11.1-10.41.08,0,.16,0,.24,0,2.46.06,4.72.93,6.53,2.35.15.1.34.16.53.16.25,0,.48-.1.65-.25.03-.03.06-.06.07-.07l2.93-3.14c.17-.17.27-.41.27-.67s-.11-.5-.28-.68c-.01-.01-.03-.03-.05-.04-2.09-1.71-4.58-2.94-7.32-3.52-1.01-.21-1.94-.32-2.96-.37-.2,0-.39,0-.59,0-.16,0-.3,0-.33,0h0s0,0,0,0c0,0,0,0,0,0-.02,0-.05,0-.07,0-.22,0-.44.01-.66.03-.05,0-.11,0-.16,0-.24.02-.48.04-.71.06-.04,0-.1,0-.14.01-.53.06-1.05.15-1.56.25,0,0-.02,0-.02,0-.98.21-1.93.5-2.84.86-5.63,2.25-9.79,7.36-10.69,13.54,0,.06-.02.12-.03.19-.01.08-.02.15-.03.23-.03.25-.05.5-.07.74,0,.08-.02.16-.02.24-.01.2-.02.41-.02.62,0,.14-.01.27-.02.41,0,.01,0,.02,0,.03,0,0,0,0,0,0,0,0,0,0,0,0,0,0,0,0,0,.01,0,0,0,0,0,.01,0,0,0,0,0,0,0,0,0,0,0,0,0,0,0,.01,0,.02,0,0,0,.01,0,.02,0,0,0,0,0,0s0,0,0,0c0,0,0,0,0,.01s0,0,0,.01c0,0,0,0,0,0s0,0,0,0c0,.01,0,.02,0,.03,0,.14.01.27.01.41,0,.21,0,.41.02.62,0,.08.01.15.02.23.02.25.04.5.07.75,0,.08.01.15.02.23,0,.06.02.12.03.19.87,6.18,5.01,11.31,10.63,13.59.91.37,1.86.66,2.84.87,0,0,.02,0,.02,0,.52.11,1.03.2,1.56.26.04,0,.1,0,.14.01.24.03.47.05.71.07.05,0,.11,0,.16,0,.22.01.44.02.66.03.02,0,.05,0,.07,0,0,0,0,0,0,0,0,0,0,0,0,0h0s.17,0,.33,0c.2,0,.39,0,.59,0,1.02-.04,1.95-.14,2.96-.35,2.74-.57,5.24-1.79,7.34-3.49.02-.02.04-.03.05-.04.17-.17.28-.41.28-.68,0-.26-.1-.5-.27-.67l-2.91-3.16Zm9.25-8.89v-.09c0-.14,0-.28-.01-.43-.04-2.4-.7-5.08-1.95-7.52-.04-.08-.06-.11-.07-.13-.18-.23-.45-.38-.77-.38-.23,0-.43.08-.59.21h-.02s-2.92,2.5-2.92,2.5l-.57.48-.02.02c-.13.11-.26.4-.26.66,0,.11.02.21.06.31.57,1.33.89,2.8.89,4.34,0,.02,0,.03,0,.05,0,.02,0,.03,0,.05,0,1.54-.32,3-.89,4.34-.03.1-.06.2-.06.31,0,.26.13.54.26.66l.02.02.57.48,2.92,2.49h.02c.16.14.37.22.59.22,0,0,0,0,.01,0,.14,0,.27-.03.39-.09.02-.01.05-.02.07-.04,0,0,0,0,.01,0,.11-.06.2-.14.28-.24.01-.02.03-.05.07-.13,1-1.94,1.61-4.04,1.85-6.03,0-.02,0-.05,0-.07.03-.25.05-.5.07-.75.01-.18.02-.36.03-.55,0-.04,0-.08,0-.11,0-.14.01-.28.01-.43v-.07s0-.03,0-.03c0,0,0,0,0,0v-.04s0,0,0,0Z"/></g></g></svg>