<?xml version="1.0" encoding="UTF-8"?><svg id="Layer_2" xmlns="http://www.w3.org/2000/svg" xmlns:xlink="http://www.w3.org/1999/xlink" viewBox="0 0 219.78 55.37"><defs><style>.cls-1{fill:#0b0d0e;}.cls-2{fill:url(#linear-gradient);}</style><linearGradient id="linear-gradient" x1="5.69" y1="49.59" x2="50.39" y2="4.88" gradientUnits="userSpaceOnUse"><stop offset="0" stop-color="#3e50b4"/><stop offset=".63" stop-color="#2f8676"/><stop offset=".75" stop-color="#2f8872"/><stop offset=".86" stop-color="#308f67"/><stop offset=".96" stop-color="#329b55"/><stop offset="1" stop-color="#34a14c"/></linearGradient></defs><g id="Layer_1-2"><path class="cls-1" d="m90.78,32.47c-.22-.22-.49-.31-.74-.3-.26,0-.51.1-.71.3-1.44,1.44-2.98,2.19-5.1,2.21-4.27-.04-6.97-3.2-7.02-7,.05-3.8,2.75-6.96,7.02-7,2.12.02,3.66.77,5.1,2.21.2.2.45.3.71.3.26.01.52-.08.74-.3l3.23-3.18c.32-.32.43-.75.11-1.13-2.26-2.91-5.87-4.74-10.13-4.74-.03,0-.06,0-.09,0-.03,0-.05,0-.08,0-7.92,0-13.79,5.93-13.79,13.74,0,.04,0,.07,0,.11,0,.04,0,.07,0,.11,0,7.81,5.87,13.74,13.79,13.74.03,0,.05,0,.08,0,.03,0,.06,0,.09,0,4.26,0,7.87-1.83,10.13-4.74.32-.38.22-.81-.11-1.13l-3.23-3.18Z"/><path class="cls-1" d="m98.76,27.68c0-7.81,5.87-13.85,13.85-13.85s13.79,6.03,13.79,13.85-5.87,13.85-13.79,13.85-13.85-6.03-13.85-13.85Zm13.85,7c3.72,0,6.63-2.69,6.63-7s-2.91-7-6.63-7-6.68,2.69-6.68,7,2.91,7,6.68,7Z"/><path class="cls-1" d="m131.88,50.27V15.32c0-.47.38-.85.85-.85h5.29c.38,0,.81.35.81.81l.05,1.45c.02.48.61.67.92.31,1.78-2.04,4.32-3.21,7.76-3.21,7.38,0,12.5,6.04,12.5,13.85s-5.12,13.85-12.5,13.85c-3.57,0-6.29-1.37-8.12-3.69-.02-.03-.07-.01-.07.02v12.41c0,.47-.38.85-.85.85h-5.79c-.47,0-.85-.38-.85-.85Zm14.12-15.53c3.88,0,6.79-2.8,6.79-7.06s-2.91-7.06-6.79-7.06-6.73,2.8-6.73,7.06,2.75,7.06,6.73,7.06Z"/><path class="cls-1" d="m164.5,27.68c0-7.81,5.87-13.85,13.85-13.85s13.79,6.03,13.79,13.85-5.87,13.85-13.79,13.85-13.85-6.03-13.85-13.85Zm13.85,7c3.72,0,6.63-2.69,6.63-7s-2.91-7-6.63-7-6.68,2.69-6.68,7,2.91,7,6.68,7Z"/><path class="cls-1" d="m197.62,40.03V3.2c0-.47.38-.85.85-.85h5.8c.47,0,.85.38.85.85v36.83c0,.47-.38.85-.85.85h-5.8c-.47,0-.85-.38-.85-.85Z"/><path class="cls-1" d="m212.29,40.03V3.2c0-.47.38-.85.85-.85h5.8c.47,0,.85.38.85.85v36.83c0,.47-.38.85-.85.85h-5.8c-.47,0-.85-.38-.85-.85Z"/><path class="cls-2" d="m38.25,27.68c0,5.84-4.74,10.57-10.58,10.57s-10.58-4.73-10.58-10.57,4.74-10.57,10.58-10.57,10.58,4.73,10.58,10.57Zm2.31,14.26s-.07-.07-.11-.12c-.27-.25-.63-.41-1.03-.41-.32,0-.61.09-.86.25-2.9,2.25-6.51,3.61-10.44,3.71-.14,0-.28,0-.42,0-9.46,0-17.19-7.41-17.68-16.74,0-.01,0-.03,0-.04-.01-.2-.01-.41-.02-.61,0-.11,0-.22,0-.32,0-.11,0-.22,0-.33,0-.2,0-.41.02-.61,0-.01,0-.03,0-.04.54-9.33,8.3-16.71,17.76-16.66.13,0,.26,0,.39,0,3.94.1,7.56,1.48,10.46,3.76.24.16.54.26.85.26.4,0,.76-.16,1.04-.41.05-.05.09-.09.11-.12l4.68-5.03c.27-.28.43-.65.43-1.07s-.17-.81-.45-1.09c-.02-.02-.04-.04-.07-.07-3.34-2.73-7.33-4.7-11.71-5.63-1.62-.34-3.1-.52-4.74-.59-.31-.02-.62-.02-.95-.02-.26,0-.48,0-.53,0h0s0,0,0,0c0,0,0,0,0,0-.04,0-.07,0-.11,0-.35,0-.7.02-1.05.04-.09,0-.17,0-.26.01-.38.03-.76.06-1.14.1-.07,0-.15.01-.22.02-.85.1-1.68.23-2.5.41,0,0-.03,0-.04,0-1.57.33-3.09.79-4.54,1.38C8.4,5.57,1.74,13.75.3,23.64c-.01.1-.03.2-.05.3-.02.12-.03.24-.04.36-.05.39-.08.79-.11,1.19-.01.13-.03.25-.04.38-.02.33-.03.66-.04.99,0,.22-.02.43-.03.65,0,.02,0,.03,0,.05,0,0,0,0,0,0,0,0,0,0,0,0,0,0,0,.01,0,.02,0,0,0,.01,0,.02,0,0,0,0,0,0,0,0,0,0,0,0,0,.01,0,.02,0,.03,0,.01,0,.02,0,.03,0,0,0,0,0,0s0,0,0,0c0,0,0,.01,0,.02s0,.01,0,.02c0,0,0,0,0,0s0,0,0,0c0,.02,0,.03,0,.05,0,.22.02.43.02.65,0,.33.01.66.03.99,0,.12.02.24.03.37.03.4.06.8.11,1.2.01.12.02.24.04.36.01.1.03.2.05.3,1.4,9.89,8.02,18.11,17.01,21.74,1.45.59,2.97,1.06,4.54,1.4,0,0,.03,0,.04,0,.82.18,1.65.32,2.5.42.07,0,.15.01.22.02.38.04.76.08,1.14.11.09,0,.17,0,.26.01.35.02.7.04,1.05.05.04,0,.07,0,.11,0,0,0,0,0,0,0,0,0,0,0,0,0h0c.05,0,.27,0,.53,0,.32,0,.63,0,.95-.01,1.64-.07,3.12-.23,4.74-.57,4.38-.91,8.38-2.86,11.74-5.58.03-.02.06-.05.07-.07.28-.28.45-.66.45-1.08,0-.42-.16-.79-.43-1.07l-4.66-5.05Zm14.81-14.22v-.15c0-.23,0-.46-.02-.68-.06-3.84-1.12-8.13-3.12-12.03-.06-.12-.1-.18-.11-.2-.28-.37-.72-.61-1.23-.61-.36,0-.69.13-.95.34l-.02.02-4.68,3.99-.91.77-.04.03c-.21.18-.42.64-.42,1.05,0,.18.04.34.09.5.91,2.13,1.42,4.48,1.42,6.94,0,.03,0,.05,0,.08,0,.02,0,.05,0,.07,0,2.46-.51,4.81-1.42,6.94-.05.16-.09.33-.09.5,0,.41.21.87.42,1.05l.04.03.91.77,4.68,3.99.02.02c.26.21.59.34.95.34,0,0,.01,0,.02,0,.22,0,.43-.04.63-.15.04-.02.08-.04.12-.06,0,0,.01,0,.02-.01.17-.1.33-.23.45-.39.02-.03.05-.08.11-.2,1.6-3.11,2.58-6.47,2.95-9.65,0-.04,0-.08.01-.12.04-.4.08-.8.11-1.2.02-.29.03-.58.04-.87,0-.06,0-.12,0-.18,0-.23.02-.45.02-.68v-.11s0-.04,0-.04c0,0,0,0,0,0v-.07s0,0,0,0Z"/></g></svg>