<?xml version="1.0" encoding="UTF-8"?><svg id="Layer_2" xmlns="http://www.w3.org/2000/svg" viewBox="0 0 87.52 87.52"><defs><style>.cls-1{fill:#3e50b4;}.cls-2{fill:#f5f5f5;}</style></defs><g id="Layer_1-2"><g><rect class="cls-1" width="87.52" height="87.52" rx="7.59" ry="7.59"/><path class="cls-2" d="m55.98,43.75c0,6.75-5.48,12.22-12.23,12.22s-12.23-5.47-12.23-12.22,5.48-12.22,12.23-12.22,12.23,5.47,12.23,12.22Zm2.67,16.48s-.08-.08-.13-.14c-.32-.29-.73-.47-1.19-.47-.37,0-.71.11-.99.29-3.35,2.6-7.52,4.18-12.07,4.28-.16,0-.32,0-.49,0-10.94,0-19.87-8.57-20.44-19.35,0-.02,0-.03,0-.05-.01-.23-.01-.47-.02-.71,0-.13,0-.25,0-.38,0-.13,0-.25,0-.38,0-.23,0-.47.02-.7,0-.02,0-.03,0-.05.62-10.78,9.59-19.31,20.53-19.26.15,0,.3,0,.45,0,4.56.12,8.74,1.72,12.09,4.34.28.19.62.3.99.3.46,0,.88-.18,1.2-.47.05-.05.11-.11.13-.14l5.41-5.81c.31-.32.5-.76.5-1.24s-.2-.93-.52-1.25c-.02-.02-.05-.05-.08-.08-3.87-3.16-8.48-5.43-13.54-6.51-1.87-.4-3.58-.6-5.48-.68-.36-.02-.72-.02-1.09-.02-.3,0-.55,0-.62,0h0s0,0,0,0c0,0,0,0-.01,0-.04,0-.09,0-.13,0-.41,0-.81.02-1.21.05-.1,0-.2,0-.3.01-.44.03-.88.07-1.32.12-.08,0-.18.01-.26.02-.98.11-1.94.27-2.89.47-.01,0-.03,0-.04,0-1.81.38-3.57.92-5.25,1.59-10.41,4.16-18.11,13.62-19.78,25.04-.02.11-.04.23-.05.34-.02.14-.03.28-.05.42-.06.46-.09.92-.13,1.38-.01.15-.03.29-.04.43-.03.38-.03.76-.04,1.14,0,.25-.03.5-.03.76,0,.02,0,.04,0,.06,0,0,0,0,0,0,0,0,0,0,0,0,0,0,0,.01,0,.02,0,0,0,.01,0,.02,0,0,0,0,0,0,0,0,0,0,0,0,0,.01,0,.02,0,.04,0,.01,0,.02,0,.04,0,0,0,0,0,0s0,0,0,0c0,0,0,.01,0,.02s0,.01,0,.02c0,0,0,0,0,0s0,0,0,0c0,.02,0,.04,0,.06,0,.25.02.5.03.75.01.38.01.77.04,1.14,0,.14.03.28.04.42.04.46.07.93.12,1.39.02.14.03.28.05.42.02.12.04.23.05.34,1.62,11.43,9.27,20.93,19.66,25.13,1.68.68,3.43,1.22,5.24,1.61.01,0,.03,0,.04,0,.95.2,1.91.36,2.89.48.08,0,.18.02.26.03.44.05.87.09,1.32.12.1,0,.2,0,.3.01.4.02.81.04,1.21.05.04,0,.09,0,.13,0,0,0,0,0,.01,0,0,0,0,0,0,0h0c.06,0,.31,0,.62,0,.37,0,.73,0,1.09-.01,1.89-.08,3.61-.27,5.48-.66,5.07-1.05,9.69-3.31,13.57-6.45.03-.03.07-.06.09-.08.32-.32.52-.76.52-1.25,0-.48-.19-.92-.5-1.24l-5.38-5.84Zm17.11-16.44v-.17c0-.27-.01-.53-.02-.79-.07-4.44-1.3-9.4-3.61-13.9-.07-.14-.11-.2-.13-.24-.33-.43-.84-.71-1.42-.71-.42,0-.8.15-1.1.39l-.03.02-5.41,4.61-1.05.89-.04.04c-.24.21-.49.74-.49,1.22,0,.2.04.4.1.58,1.05,2.46,1.64,5.17,1.64,8.02,0,.03,0,.06,0,.09,0,.03,0,.06,0,.08,0,2.85-.59,5.56-1.64,8.02-.06.18-.1.38-.1.58,0,.47.25,1.01.49,1.22l.04.04,1.05.89,5.41,4.61.03.02c.3.24.68.39,1.1.39,0,0,.01,0,.02,0,.25.01.5-.05.72-.17.05-.02.09-.05.13-.07,0,0,.02-.01.02-.02.2-.12.38-.27.52-.45.02-.03.06-.09.13-.24,1.84-3.6,2.99-7.48,3.41-11.16,0-.05,0-.09.01-.13.05-.47.09-.93.12-1.39.02-.34.04-.68.05-1.01,0-.07,0-.14.01-.21,0-.26.02-.52.02-.79v-.13s0-.05,0-.05c0,0,0,0,0,0v-.08s0,0,0,0Z"/></g></g></svg>