<?xml version="1.0" encoding="UTF-8"?><svg id="Layer_2" xmlns="http://www.w3.org/2000/svg" xmlns:xlink="http://www.w3.org/1999/xlink" viewBox="0 0 228.09 64"><defs><style>.cls-1{fill:#0b0d0e;}.cls-2{fill:url(#linear-gradient);}</style><linearGradient id="linear-gradient" x1="6.58" y1="57.31" x2="58.25" y2="5.65" gradientUnits="userSpaceOnUse"><stop offset="0" stop-color="#3e50b4"/><stop offset=".63" stop-color="#2f8676"/><stop offset=".75" stop-color="#2f8872"/><stop offset=".86" stop-color="#308f67"/><stop offset=".96" stop-color="#329b55"/><stop offset="1" stop-color="#34a14c"/></linearGradient></defs><g id="Layer_1-2"><g><g><path class="cls-1" d="m99.1,36.79c-.22-.22-.49-.31-.74-.3-.26,0-.51.1-.71.3-1.44,1.44-2.98,2.19-5.1,2.21-4.27-.04-6.97-3.2-7.02-7,.05-3.8,2.75-6.96,7.02-7,2.12.02,3.66.77,5.1,2.21.2.2.45.3.71.3.26.01.52-.08.74-.3l3.23-3.18c.32-.32.43-.75.11-1.13-2.26-2.91-5.87-4.74-10.13-4.74-.03,0-.06,0-.09,0-.03,0-.05,0-.08,0-7.92,0-13.79,5.93-13.79,13.74,0,.04,0,.07,0,.11,0,.04,0,.07,0,.11,0,7.81,5.87,13.74,13.79,13.74.03,0,.05,0,.08,0,.03,0,.06,0,.09,0,4.26,0,7.87-1.83,10.13-4.74.32-.38.22-.81-.11-1.13l-3.23-3.18Z"/><path class="cls-1" d="m107.07,31.99c0-7.81,5.87-13.85,13.85-13.85s13.79,6.03,13.79,13.85-5.87,13.85-13.79,13.85-13.85-6.03-13.85-13.85Zm13.85,7c3.72,0,6.63-2.69,6.63-7s-2.91-7-6.63-7-6.68,2.69-6.68,7,2.91,7,6.68,7Z"/><path class="cls-1" d="m140.19,54.58V19.64c0-.47.38-.85.85-.85h5.29c.38,0,.81.35.81.81l.05,1.45c.02.48.61.67.92.31,1.78-2.04,4.32-3.21,7.76-3.21,7.38,0,12.5,6.04,12.5,13.85s-5.12,13.85-12.5,13.85c-3.57,0-6.29-1.37-8.12-3.69-.02-.03-.07-.01-.07.02v12.41c0,.47-.38.85-.85.85h-5.79c-.47,0-.85-.38-.85-.85Zm14.12-15.53c3.88,0,6.79-2.8,6.79-7.06s-2.91-7.06-6.79-7.06-6.73,2.8-6.73,7.06,2.75,7.06,6.73,7.06Z"/><path class="cls-1" d="m172.81,31.99c0-7.81,5.87-13.85,13.85-13.85s13.79,6.03,13.79,13.85-5.87,13.85-13.79,13.85-13.85-6.03-13.85-13.85Zm13.85,7c3.72,0,6.63-2.69,6.63-7s-2.91-7-6.63-7-6.68,2.69-6.68,7,2.91,7,6.68,7Z"/><path class="cls-1" d="m205.93,44.35V7.51c0-.47.38-.85.85-.85h5.8c.47,0,.85.38.85.85v36.83c0,.47-.38.85-.85.85h-5.8c-.47,0-.85-.38-.85-.85Z"/><path class="cls-1" d="m220.6,44.35V7.51c0-.47.38-.85.85-.85h5.8c.47,0,.85.38.85.85v36.83c0,.47-.38.85-.85.85h-5.8c-.47,0-.85-.38-.85-.85Z"/></g><path class="cls-2" d="m44.21,31.99c0,6.75-5.48,12.22-12.23,12.22s-12.23-5.47-12.23-12.22,5.48-12.22,12.23-12.22,12.23,5.47,12.23,12.22Zm2.67,16.48s-.08-.08-.13-.14c-.32-.29-.73-.47-1.19-.47-.37,0-.71.11-.99.29-3.35,2.6-7.52,4.18-12.07,4.28-.16,0-.32,0-.49,0-10.94,0-19.87-8.57-20.44-19.35,0-.02,0-.03,0-.05-.01-.23-.01-.47-.02-.71,0-.13,0-.25,0-.38,0-.13,0-.25,0-.38,0-.23,0-.47.02-.7,0-.02,0-.03,0-.05.62-10.78,9.59-19.31,20.53-19.26.15,0,.3,0,.45,0,4.56.12,8.74,1.72,12.09,4.34.28.19.62.3.99.3.46,0,.88-.18,1.2-.47.05-.05.11-.11.13-.14l5.41-5.81c.31-.32.5-.76.5-1.24s-.2-.93-.52-1.25c-.02-.02-.05-.05-.08-.08-3.87-3.16-8.48-5.43-13.54-6.51-1.87-.4-3.58-.6-5.48-.68-.36-.02-.72-.02-1.09-.02-.3,0-.55,0-.62,0h0s0,0,0,0c0,0,0,0-.01,0-.04,0-.09,0-.13,0-.41,0-.81.02-1.21.05-.1,0-.2,0-.3.01-.44.03-.88.07-1.32.12-.08,0-.18.01-.26.02-.98.11-1.94.27-2.89.47-.01,0-.03,0-.04,0-1.81.38-3.57.92-5.25,1.59C9.71,6.43,2.02,15.89.35,27.32c-.02.11-.04.23-.05.34-.02.14-.03.28-.05.42-.06.46-.09.92-.13,1.38-.01.15-.03.29-.04.43-.03.38-.03.76-.04,1.14,0,.25-.03.5-.03.76,0,.02,0,.04,0,.06,0,0,0,0,0,0,0,0,0,0,0,0,0,0,0,.01,0,.02,0,0,0,.01,0,.02,0,0,0,0,0,0,0,0,0,0,0,0,0,.01,0,.02,0,.04,0,.01,0,.02,0,.04,0,0,0,0,0,0s0,0,0,0c0,0,0,.01,0,.02s0,.01,0,.02c0,0,0,0,0,0s0,0,0,0c0,.02,0,.04,0,.06,0,.25.02.5.03.75.01.38.01.77.04,1.14,0,.14.03.28.04.42.04.46.07.93.12,1.39.02.14.03.28.05.42.02.12.04.23.05.34,1.62,11.43,9.27,20.93,19.66,25.13,1.68.68,3.43,1.22,5.24,1.61.01,0,.03,0,.04,0,.95.2,1.91.36,2.89.48.08,0,.18.02.26.03.44.05.87.09,1.32.12.1,0,.2,0,.3.01.4.02.81.04,1.21.05.04,0,.09,0,.13,0,0,0,0,0,.01,0,0,0,0,0,0,0h0c.06,0,.31,0,.62,0,.37,0,.73,0,1.09-.01,1.89-.08,3.61-.27,5.48-.66,5.07-1.05,9.69-3.31,13.57-6.45.03-.03.07-.06.09-.08.32-.32.52-.76.52-1.25,0-.48-.19-.92-.5-1.24l-5.38-5.84Zm17.11-16.44v-.17c0-.27-.01-.53-.02-.79-.07-4.44-1.3-9.4-3.61-13.9-.07-.14-.11-.2-.13-.24-.33-.43-.84-.71-1.42-.71-.42,0-.8.15-1.1.39l-.03.02-5.41,4.61-1.05.89-.04.04c-.24.21-.49.74-.49,1.22,0,.2.04.4.1.58,1.05,2.46,1.64,5.17,1.64,8.02,0,.03,0,.06,0,.09,0,.03,0,.06,0,.08,0,2.85-.59,5.56-1.64,8.02-.06.18-.1.38-.1.58,0,.47.25,1.01.49,1.22l.04.04,1.05.89,5.41,4.61.03.02c.3.24.68.39,1.1.39,0,0,.01,0,.02,0,.25.01.5-.05.72-.17.05-.02.09-.05.13-.07,0,0,.02-.01.02-.02.2-.12.38-.27.52-.45.02-.03.06-.09.13-.24,1.84-3.6,2.99-7.48,3.41-11.16,0-.05,0-.09.01-.13.05-.47.09-.93.12-1.39.02-.34.04-.68.05-1.01,0-.07,0-.14.01-.21,0-.26.02-.52.02-.79v-.13s0-.05,0-.05c0,0,0,0,0,0v-.08s0,0,0,0Z"/></g></g></svg>